<?xml version="1.0" encoding="UTF-8" standalone="no"?>
<!-- Created with Inkscape (http://www.inkscape.org/) -->

<svg
   width="500mm"
   height="500mm"
   viewBox="0 0 500 500"
   version="1.1"
   id="svg1"
   xmlns="http://www.w3.org/2000/svg"
   xmlns:svg="http://www.w3.org/2000/svg">
   <defs
      id="defs1" />
   <g
      id="layer1">
      <path
         style="fill:#000000;fill-opacity:0;stroke:#ff00ff;stroke-width:10;stroke-dasharray:none;stroke-opacity:1"
         d="m 500,237.7867 c 0,0 -44.5161,-36.21855 -111.19632,-38.34356 C 305.3537,196.78371 252.17898,316.9748 168.71166,319.0184 106.314,320.54614 3.5e-6,237.7867 3.5e-6,237.7867"
         id="path2" />
      <path
         style="fill:#000000;fill-opacity:0;stroke:#ffa500;stroke-width:10;stroke-dasharray:none;stroke-opacity:1"
         d="M 0,237.7867 C 144.44677,187.7441 247.86084,163.27378 404.90798,171.20287 446.47995,173.30178 500,237.7867 500,237.7867"
         id="path3" />
      <path
         style="fill:#000000;fill-opacity:0;stroke:#4682b4;stroke-width:10;stroke-dasharray:none;stroke-opacity:1"
         d="M 0,237.7867 C 144.44677,187.7441 265.61611,133.33843 420.90345,158.08753 474.90165,166.69356 500,237.7867 500,237.7867"
         id="path3-1" />
      <path
         style="fill:#000000;fill-opacity:0;stroke:#3cb371;stroke-width:10;stroke-dasharray:none;stroke-opacity:1"
         d="M 0,237.7867 C 144.44677,187.7441 223.674,137.14834 380.04241,153.74945 420.90345,158.08753 500,237.7867 500,237.7867"
         id="path3-1-4" />
      <path
         style="fill:#000000;fill-opacity:0;stroke:#dc143c;stroke-width:10;stroke-dasharray:none;stroke-opacity:1"
         d="m 0,237.7867 c 0,0 109.87661,-97.67389 266.47767,-83.43362 C 430.13845,169.23532 500,237.7867 500,237.7867"
         id="path3-1-4-6" />
      <path
         style="fill:#000000;fill-opacity:0;stroke:#4682b4;stroke-width:10;stroke-dasharray:none;stroke-opacity:1"
         d="m 0,237.7867 c -0.011221,0.10099 214.09753,-114.30875 416.91876,0 43.41368,24.46767 82.54179,-2.79993 83.08124,0"
         id="path3-1-4-6-5" />
      <path
         style="fill:#000000;fill-opacity:0;stroke:#4b0082;stroke-width:10;stroke-dasharray:none;stroke-opacity:1"
         d="M 0,237.7867 C -0.1214868,236.78502 115.36588,19.447167 325.18838,237.549 400.08532,315.40128 505.14136,240.95102 500,237.7867"
         id="path3-1-4-6-5-2" />
      <path
         style="fill:#000000;fill-opacity:0;stroke:#228b22;stroke-width:10;stroke-dasharray:none;stroke-opacity:1"
         d="M 0,237.7867 C -0.12149,236.78502 58.39209,15.439136 264.63711,236.92702 370.2531,350.34873 509.26292,245.72335 500,237.7867"
         id="path3-1-4-6-5-2-1" />
      <path
         style="fill:#000000;fill-opacity:0;stroke:#800080;stroke-width:10;stroke-dasharray:none;stroke-opacity:1"
         d="M 0,237.7867 C 11.221804,203.8085 49.653561,108.59377 195.39643,237.76704 296.40462,327.29155 516.07265,234.43407 500,237.7867"
         id="path3-1-4-6-5-2-1-1" />
      <path
         style="fill:#000000;fill-opacity:0;stroke:#ff6347;stroke-width:10;stroke-dasharray:none;stroke-opacity:1"
         d="M 0,237.7867 C -0.6811458,177.01917 81.392473,111.52452 145.50853,232.34444 260.44807,425.35898 489.03817,283.97568 500,237.7867"
         id="path3-1-4-6-5-2-1-1-3" />
      <path
         style="fill:#000000;fill-opacity:0;stroke:#93dc58;stroke-width:10;stroke-dasharray:none;stroke-opacity:1"
         d="M 0,237.7867 C 8.164408,218.93893 30.465813,182.59326 64.481673,237.7164 224.94266,443.14664 499.55861,287.95851 500,237.7867"
         id="path3-1-4-6-5-2-1-1-3-5" />
   </g>
</svg>
